<svg width="70" height="70" viewBox="0 0 70 70" fill="none" xmlns="http://www.w3.org/2000/svg">
<path d="M34.9999 64.1668C51.1087 64.1668 64.1666 51.1089 64.1666 35.0002C64.1666 18.8914 51.1087 5.8335 34.9999 5.8335C18.8912 5.8335 5.83325 18.8914 5.83325 35.0002C5.83325 51.1089 18.8912 64.1668 34.9999 64.1668Z" stroke="#090057" stroke-width="4" stroke-linecap="round" stroke-linejoin="round"/>
<path d="M34.9999 33.5418C36.9338 33.5418 38.7885 32.7736 40.1559 31.4061C41.5234 30.0387 42.2916 28.184 42.2916 26.2502C42.2916 24.3163 41.5234 22.4616 40.1559 21.0942C38.7885 19.7267 36.9338 18.9585 34.9999 18.9585C33.066 18.9585 31.2114 19.7267 29.8439 21.0942C28.4765 22.4616 27.7083 24.3163 27.7083 26.2502C27.7083 28.184 28.4765 30.0387 29.8439 31.4061C31.2114 32.7736 33.066 33.5418 34.9999 33.5418Z" stroke="#090057" stroke-width="4" stroke-linejoin="round"/>
<path d="M14.6152 55.9012C15.1169 48.3018 21.4402 42.292 29.1665 42.292H40.8331C48.5492 42.292 54.8667 48.2857 55.3829 55.8705" stroke="#090057" stroke-width="4" stroke-linecap="round" stroke-linejoin="round"/>
</svg>
