<svg width="70" height="70" viewBox="0 0 70 70" fill="none" xmlns="http://www.w3.org/2000/svg">
<path d="M65.1537 56.8C58.14 56.7265 51.3401 54.5477 45.7701 50.5892C40.2001 46.6306 36.1589 41.1048 34.2504 34.8374C32.3419 28.57 32.6684 21.8974 35.1813 15.8166C37.6942 9.73573 42.2584 4.57309 48.1922 1.1C45.1939 0.376266 42.1093 0.00668047 39.0114 0C29.0148 0 19.4276 3.68749 12.3589 10.2513C5.29023 16.815 1.31909 25.7174 1.31909 35C1.31909 44.2826 5.29023 53.185 12.3589 59.7487C19.4276 66.3125 29.0148 70 39.0114 70C44.6745 69.9953 50.2617 68.7902 55.3473 66.4767C60.4329 64.1632 64.8827 60.8023 68.3576 56.65C67.293 56.7505 66.2237 56.8005 65.1537 56.8V56.8Z" fill="#090057"/>
</svg>
