<svg width="70" height="70" viewBox="0 0 70 70" fill="none" xmlns="http://www.w3.org/2000/svg">
<path d="M32.5391 0.546875H37.4609V12.8516H32.5391V0.546875ZM48.9978 17.5273L57.6259 8.8993L61.1056 12.3791L52.4776 21.0071L48.9978 17.5273ZM57.1484 32.5391H69.4531V37.4609H57.1484V32.5391ZM48.9978 52.4727L52.4776 48.9954L61.1056 57.6234L57.6259 61.1032L48.9978 52.4727ZM32.5391 57.1484H37.4609V69.4531H32.5391V57.1484ZM8.8993 57.6209L17.5273 48.9929L21.0071 52.4727L12.3815 61.1007L8.8993 57.6209ZM0.546875 32.5391H12.8516V37.4609H0.546875V32.5391ZM8.90176 12.3791L12.3815 8.8993L21.0096 17.5273L17.5273 21.0071L8.90176 12.3791ZM35 20.2344C32.0796 20.2344 29.2249 21.1004 26.7967 22.7228C24.3685 24.3453 22.4759 26.6514 21.3583 29.3494C20.2408 32.0475 19.9484 35.0164 20.5181 37.8806C21.0878 40.7449 22.4941 43.3759 24.5591 45.4409C26.6241 47.5059 29.2551 48.9122 32.1194 49.4819C34.9836 50.0516 37.9525 49.7592 40.6506 48.6417C43.3486 47.5241 45.6547 45.6315 47.2772 43.2033C48.8996 40.7751 49.7656 37.9204 49.7656 35C49.7656 31.0839 48.21 27.3282 45.4409 24.5591C42.6718 21.79 38.9161 20.2344 35 20.2344Z" fill="#090057"/>
</svg>
